<mxfile host="app.diagrams.net" modified="2024-04-26T12:22:04.119Z" agent="Mozilla/5.0 (Windows NT 10.0; Win64; x64) AppleWebKit/537.36 (KHTML, like Gecko) Chrome/124.0.0.0 Safari/537.36 Edg/124.0.0.0" etag="FK1BfcC6xdtjmGB1vudU" version="24.3.0" type="device">
  <diagram name="Seite-1" id="dUHnv_xZcuwUlfUU6h7k">
    <mxGraphModel dx="935" dy="659" grid="1" gridSize="10" guides="1" tooltips="1" connect="1" arrows="1" fold="1" page="1" pageScale="1" pageWidth="827" pageHeight="1169" math="0" shadow="0">
      <root>
        <mxCell id="0" />
        <mxCell id="1" parent="0" />
        <mxCell id="N27-3AYXzTWWGKCFgygp-1" value="&lt;b&gt;DragnSurvey&lt;/b&gt;" style="verticalAlign=top;align=center;shape=cube;size=10;direction=south;fontStyle=0;html=1;boundedLbl=1;spacingLeft=5;whiteSpace=wrap;" vertex="1" parent="1">
          <mxGeometry x="80" y="400" width="130" height="270" as="geometry" />
        </mxCell>
        <mxCell id="N27-3AYXzTWWGKCFgygp-3" value="«component»&lt;br&gt;&lt;b&gt;Respondents&lt;/b&gt;" style="html=1;dropTarget=0;whiteSpace=wrap;" vertex="1" parent="1">
          <mxGeometry x="100" y="440" width="80" height="100" as="geometry" />
        </mxCell>
        <mxCell id="N27-3AYXzTWWGKCFgygp-4" value="" style="shape=module;jettyWidth=8;jettyHeight=4;" vertex="1" parent="N27-3AYXzTWWGKCFgygp-3">
          <mxGeometry x="1" width="20" height="20" relative="1" as="geometry">
            <mxPoint x="-27" y="7" as="offset" />
          </mxGeometry>
        </mxCell>
        <mxCell id="N27-3AYXzTWWGKCFgygp-5" value="&lt;b&gt;Backend Server&lt;/b&gt;" style="verticalAlign=top;align=center;shape=cube;size=10;direction=south;fontStyle=0;html=1;boundedLbl=1;spacingLeft=5;whiteSpace=wrap;" vertex="1" parent="1">
          <mxGeometry x="280" y="400" width="130" height="270" as="geometry" />
        </mxCell>
        <mxCell id="N27-3AYXzTWWGKCFgygp-6" value="" style="whiteSpace=wrap;html=1;aspect=fixed;" vertex="1" parent="1">
          <mxGeometry x="170" y="510" width="20" height="20" as="geometry" />
        </mxCell>
        <mxCell id="N27-3AYXzTWWGKCFgygp-8" style="rounded=0;orthogonalLoop=1;jettySize=auto;html=1;endArrow=circle;endFill=0;exitX=1;exitY=0.5;exitDx=0;exitDy=0;" edge="1" parent="1" source="N27-3AYXzTWWGKCFgygp-6">
          <mxGeometry relative="1" as="geometry">
            <mxPoint x="200" y="500" as="sourcePoint" />
            <mxPoint x="250" y="520" as="targetPoint" />
          </mxGeometry>
        </mxCell>
        <mxCell id="N27-3AYXzTWWGKCFgygp-9" value="«component»&lt;br&gt;&lt;b&gt;Questions&lt;/b&gt;" style="html=1;dropTarget=0;whiteSpace=wrap;" vertex="1" parent="1">
          <mxGeometry x="100" y="560" width="80" height="100" as="geometry" />
        </mxCell>
        <mxCell id="N27-3AYXzTWWGKCFgygp-10" value="" style="shape=module;jettyWidth=8;jettyHeight=4;" vertex="1" parent="N27-3AYXzTWWGKCFgygp-9">
          <mxGeometry x="1" width="20" height="20" relative="1" as="geometry">
            <mxPoint x="-27" y="7" as="offset" />
          </mxGeometry>
        </mxCell>
        <mxCell id="N27-3AYXzTWWGKCFgygp-11" value="" style="whiteSpace=wrap;html=1;aspect=fixed;" vertex="1" parent="1">
          <mxGeometry x="170" y="630" width="20" height="20" as="geometry" />
        </mxCell>
        <mxCell id="N27-3AYXzTWWGKCFgygp-12" style="rounded=0;orthogonalLoop=1;jettySize=auto;html=1;endArrow=circle;endFill=0;exitX=1;exitY=0.5;exitDx=0;exitDy=0;" edge="1" parent="1" source="N27-3AYXzTWWGKCFgygp-11">
          <mxGeometry relative="1" as="geometry">
            <mxPoint x="190" y="650" as="sourcePoint" />
            <mxPoint x="250" y="640" as="targetPoint" />
          </mxGeometry>
        </mxCell>
        <mxCell id="N27-3AYXzTWWGKCFgygp-13" value="«component»&lt;br&gt;&lt;b&gt;API&lt;/b&gt;&lt;div&gt;&lt;b&gt;Proxy&lt;/b&gt;&lt;/div&gt;" style="html=1;dropTarget=0;whiteSpace=wrap;" vertex="1" parent="1">
          <mxGeometry x="300" y="440" width="80" height="220" as="geometry" />
        </mxCell>
        <mxCell id="N27-3AYXzTWWGKCFgygp-14" value="" style="shape=module;jettyWidth=8;jettyHeight=4;" vertex="1" parent="N27-3AYXzTWWGKCFgygp-13">
          <mxGeometry x="1" width="20" height="20" relative="1" as="geometry">
            <mxPoint x="-27" y="7" as="offset" />
          </mxGeometry>
        </mxCell>
        <mxCell id="N27-3AYXzTWWGKCFgygp-16" style="edgeStyle=orthogonalEdgeStyle;rounded=0;orthogonalLoop=1;jettySize=auto;html=1;endArrow=halfCircle;endFill=0;" edge="1" parent="1" source="N27-3AYXzTWWGKCFgygp-15">
          <mxGeometry relative="1" as="geometry">
            <mxPoint x="250" y="520" as="targetPoint" />
          </mxGeometry>
        </mxCell>
        <mxCell id="N27-3AYXzTWWGKCFgygp-15" value="" style="whiteSpace=wrap;html=1;aspect=fixed;" vertex="1" parent="1">
          <mxGeometry x="290" y="510" width="20" height="20" as="geometry" />
        </mxCell>
        <mxCell id="N27-3AYXzTWWGKCFgygp-18" style="edgeStyle=orthogonalEdgeStyle;rounded=0;orthogonalLoop=1;jettySize=auto;html=1;endArrow=halfCircle;endFill=0;" edge="1" parent="1" source="N27-3AYXzTWWGKCFgygp-17">
          <mxGeometry relative="1" as="geometry">
            <mxPoint x="250" y="640" as="targetPoint" />
          </mxGeometry>
        </mxCell>
        <mxCell id="N27-3AYXzTWWGKCFgygp-17" value="" style="whiteSpace=wrap;html=1;aspect=fixed;" vertex="1" parent="1">
          <mxGeometry x="290" y="630" width="20" height="20" as="geometry" />
        </mxCell>
        <mxCell id="N27-3AYXzTWWGKCFgygp-19" value="&lt;b&gt;Frontend Server&lt;/b&gt;" style="verticalAlign=top;align=center;shape=cube;size=10;direction=south;fontStyle=0;html=1;boundedLbl=1;spacingLeft=5;whiteSpace=wrap;" vertex="1" parent="1">
          <mxGeometry x="480" y="400" width="140" height="270" as="geometry" />
        </mxCell>
        <mxCell id="N27-3AYXzTWWGKCFgygp-22" style="rounded=0;orthogonalLoop=1;jettySize=auto;html=1;endArrow=circle;endFill=0;exitX=1;exitY=0.5;exitDx=0;exitDy=0;" edge="1" parent="1" source="N27-3AYXzTWWGKCFgygp-20">
          <mxGeometry relative="1" as="geometry">
            <mxPoint x="450" y="600" as="targetPoint" />
            <mxPoint x="390" y="660" as="sourcePoint" />
          </mxGeometry>
        </mxCell>
        <mxCell id="N27-3AYXzTWWGKCFgygp-20" value="" style="whiteSpace=wrap;html=1;aspect=fixed;" vertex="1" parent="1">
          <mxGeometry x="370" y="590" width="20" height="20" as="geometry" />
        </mxCell>
        <mxCell id="N27-3AYXzTWWGKCFgygp-23" value="«component»&lt;br&gt;&lt;b&gt;Angular Application&lt;/b&gt;" style="html=1;dropTarget=0;whiteSpace=wrap;" vertex="1" parent="1">
          <mxGeometry x="505" y="440" width="80" height="220" as="geometry" />
        </mxCell>
        <mxCell id="N27-3AYXzTWWGKCFgygp-24" value="" style="shape=module;jettyWidth=8;jettyHeight=4;" vertex="1" parent="N27-3AYXzTWWGKCFgygp-23">
          <mxGeometry x="1" width="20" height="20" relative="1" as="geometry">
            <mxPoint x="-27" y="7" as="offset" />
          </mxGeometry>
        </mxCell>
        <mxCell id="N27-3AYXzTWWGKCFgygp-26" style="edgeStyle=orthogonalEdgeStyle;rounded=0;orthogonalLoop=1;jettySize=auto;html=1;endArrow=halfCircle;endFill=0;" edge="1" parent="1" source="N27-3AYXzTWWGKCFgygp-25">
          <mxGeometry relative="1" as="geometry">
            <mxPoint x="450" y="600" as="targetPoint" />
          </mxGeometry>
        </mxCell>
        <mxCell id="N27-3AYXzTWWGKCFgygp-25" value="" style="whiteSpace=wrap;html=1;aspect=fixed;" vertex="1" parent="1">
          <mxGeometry x="495" y="590" width="20" height="20" as="geometry" />
        </mxCell>
        <mxCell id="N27-3AYXzTWWGKCFgygp-27" value="&lt;b style=&quot;font-size: 9px;&quot;&gt;&lt;font style=&quot;font-size: 9px;&quot;&gt;REST&amp;nbsp;&lt;/font&gt;&lt;/b&gt;&lt;b style=&quot;font-size: 9px; background-color: initial;&quot;&gt;API&lt;/b&gt;" style="text;html=1;align=center;verticalAlign=middle;whiteSpace=wrap;rounded=0;fontSize=10;" vertex="1" parent="1">
          <mxGeometry x="210" y="530" width="70" height="10" as="geometry" />
        </mxCell>
        <mxCell id="N27-3AYXzTWWGKCFgygp-28" value="&lt;b style=&quot;font-size: 9px;&quot;&gt;&lt;font style=&quot;font-size: 9px;&quot;&gt;REST&amp;nbsp;&lt;/font&gt;&lt;/b&gt;&lt;b style=&quot;font-size: 9px; background-color: initial;&quot;&gt;API&lt;/b&gt;" style="text;html=1;align=center;verticalAlign=middle;whiteSpace=wrap;rounded=0;fontSize=10;" vertex="1" parent="1">
          <mxGeometry x="210" y="650" width="70" height="10" as="geometry" />
        </mxCell>
        <mxCell id="N27-3AYXzTWWGKCFgygp-29" value="&lt;b style=&quot;font-size: 9px;&quot;&gt;&lt;font style=&quot;font-size: 9px;&quot;&gt;REST&amp;nbsp;&lt;/font&gt;&lt;/b&gt;&lt;b style=&quot;font-size: 9px; background-color: initial;&quot;&gt;API&lt;/b&gt;" style="text;html=1;align=center;verticalAlign=middle;whiteSpace=wrap;rounded=0;fontSize=10;" vertex="1" parent="1">
          <mxGeometry x="410" y="610" width="70" height="10" as="geometry" />
        </mxCell>
      </root>
    </mxGraphModel>
  </diagram>
</mxfile>
